<svg xmlns="http://www.w3.org/2000/svg" viewBox="368 135 672 498" role="img" aria-label="Vandox"><title>Vandox</title><g fill="#3DAA6E">
<path d="M577 206 L697 155 L697 186 L607 228 Z"/>
<path d="M567 220 L598 241 L601 290 L571 290 Q567 256 567 220 Z"/>
<path d="M581 329 L615 329 C630 370 660 404 697 426 L697 461 C648 436 600 392 581 329 Z"/>
<g transform="translate(1408 0) scale(-1 1)">
<path d="M577 206 L697 155 L697 186 L607 228 Z"/>
<path d="M567 220 L598 241 L601 290 L571 290 Q567 256 567 220 Z"/>
<path d="M581 329 L615 329 C630 370 660 404 697 426 L697 461 C648 436 600 392 581 329 Z"/>
</g></g><g fill="#3DAA6E"><path d="M492 311 L630 305.5 L790 305.5 L912 311 L790 316.5 L630 316.5 Z"/></g>
<polyline points="632,311 641,311 659,271 681,343 706,221 733,373 758,280 774,311 788,311" fill="none" stroke="#3DAA6E" stroke-width="11" stroke-linejoin="miter" stroke-miterlimit="12" stroke-linecap="butt"/><g fill="#E6EAF0"><path d="M429.84857142857146 613.0 388.0 516.0H412.25L441.7657142857143 585.2857142857143L471.69714285714286 516.0H494.00714285714287L452.02000000000004 613.0Z"/><path d="M487.03999999999996 613.0 530.2742857142857 516.0H552.4457142857143L595.8185714285714 613.0H572.2614285714285L563.67 592.2142857142857H518.6342857142857L510.04285714285714 613.0ZM556.6028571428571 575.17 541.2214285714285 538.0328571428571 525.84 575.17Z"/><path d="M601.6 613.0V516.0H620.1685714285715L668.3914285714286 574.8928571428571V516.0H690.5628571428571V613.0H672.1328571428571L623.7714285714285 554.1071428571429V613.0Z"/><path d="M709.2314285714286 613.0V516.0H753.2971428571428Q769.0942857142858 516.0 781.1500000000001 522.0278571428571Q793.2057142857143 528.0557142857143 799.9957142857143 538.8642857142858Q806.7857142857143 549.6728571428572 806.7857142857143 564.5Q806.7857142857143 579.1885714285714 799.9957142857143 590.0664285714286Q793.2057142857143 600.9442857142857 781.1500000000001 606.9721428571429Q769.0942857142858 613.0 753.2971428571428 613.0ZM731.6800000000001 594.57H752.1885714285714Q761.8885714285715 594.57 769.0250000000001 590.8978571428572Q776.1614285714286 587.2257142857143 780.1107142857143 580.4357142857143Q784.0600000000001 573.6457142857142 784.0600000000001 564.5Q784.0600000000001 555.2157142857143 780.1107142857143 548.495Q776.1614285714286 541.7742857142857 769.0250000000001 538.1021428571429Q761.8885714285715 534.4300000000001 752.1885714285714 534.4300000000001H731.6800000000001Z"/><path d="M866.4714285714285 614.6628571428571Q854.97 614.6628571428571 845.2007142857143 610.9214285714286Q835.4314285714286 607.18 828.2950000000001 600.39Q821.1585714285715 593.6 817.2092857142857 584.4542857142858Q813.26 575.3085714285714 813.26 564.5Q813.26 553.6914285714286 817.2092857142857 544.5457142857142Q821.1585714285715 535.4 828.3642857142856 528.61Q835.5699999999999 521.82 845.27 518.0785714285714Q854.97 514.3371428571429 866.3328571428572 514.3371428571429Q877.8342857142857 514.3371428571429 887.4649999999999 518.0785714285714Q897.0957142857143 521.82 904.2321428571429 528.61Q911.3685714285714 535.4 915.3871428571429 544.4764285714286Q919.4057142857142 553.5528571428572 919.4057142857142 564.5Q919.4057142857142 575.3085714285714 915.3871428571429 584.5235714285714Q911.3685714285714 593.7385714285714 904.2321428571429 600.4592857142857Q897.0957142857143 607.18 887.4649999999999 610.9214285714286Q877.8342857142857 614.6628571428571 866.4714285714285 614.6628571428571ZM866.3328571428572 595.54Q872.8457142857143 595.54 878.3192857142857 593.3228571428572Q883.7928571428571 591.1057142857143 887.95 586.9485714285714Q892.1071428571429 582.7914285714286 894.3935714285715 577.11Q896.68 571.4285714285714 896.68 564.5Q896.68 557.5714285714286 894.3935714285715 551.89Q892.1071428571429 546.2085714285714 888.0192857142857 542.0514285714286Q883.9314285714286 537.8942857142857 878.3885714285714 535.6771428571428Q872.8457142857143 533.46 866.3328571428572 533.46Q859.8199999999999 533.46 854.3464285714285 535.6771428571428Q848.8728571428571 537.8942857142857 844.7157142857143 542.0514285714286Q840.5585714285714 546.2085714285714 838.2721428571429 551.89Q835.9857142857143 557.5714285714286 835.9857142857143 564.5Q835.9857142857143 571.29 838.2721428571429 577.0407142857143Q840.5585714285714 582.7914285714286 844.6464285714285 586.9485714285714Q848.7342857142856 591.1057142857143 854.2771428571427 593.3228571428572Q859.8199999999999 595.54 866.3328571428572 595.54Z"/><path d="M920.8914285714286 613.0 956.7814285714286 563.6685714285715 922.6928571428572 516.0H948.1899999999999L970.3614285714285 547.4557142857143L992.2557142857142 516.0H1016.6442857142857L982.8328571428572 562.8371428571429L1019.0 613.0H993.0871428571429L969.6685714285715 579.3271428571429L946.6657142857143 613.0Z"/></g></svg>
